<svg height="512" viewBox="0 0 64 64" width="512" xmlns="http://www.w3.org/2000/svg"><path d="m40.69 41.13a10.032 10.032 0 0 0 -2.71-1.32l-3.98-1.25v7.44a4 4 0 0 1 -4 4h-10a4 4 0 0 1 -4-4v-7.44l-3.98 1.25a9.989 9.989 0 0 0 -7.02 9.54v11.65h40v-11.65a9.991 9.991 0 0 0 -4.31-8.22z" fill="#3d9ae2"/><path d="m56.59 12.71-1.53 5.72-4.38.9-3.35-2.97 1.53-5.72a7.99 7.99 0 0 0 -3.58 13.37l-4.59 17.12-.11.42a7.99 7.99 0 0 0 -3.58 13.37l1-3.74.53-1.98 4.38-.89 2.09 1.85 1.26 1.11-1.26 4.71-.27 1.01a2.759 2.759 0 0 0 .27-.08 7.988 7.988 0 0 0 3.31-13.29l4.7-17.54a7.99 7.99 0 0 0 3.58-13.37z" fill="#ff9811"/><path d="m36 17a2 2 0 1 1 -1 3.73v-3.46a2 2 0 0 1 1-.27z" fill="#ffb655"/><path d="m35 16.75v6.25a10 10 0 0 1 -20 0v-6.25a1.549 1.549 0 0 0 .48-.02l8.09-1.47a8.083 8.083 0 0 1 2.86 0l8.09 1.47a1.549 1.549 0 0 0 .48.02z" fill="#ffc477"/><path d="m34 38.56v7.44a4 4 0 0 1 -4 4h-10a4 4 0 0 1 -4-4v-7.44l2.79-.87 1.21 6.31 5-3 5 3 1.21-6.31z" fill="#5aaae7"/><path d="m31.21 37.69-1.21 6.31-5-3 4-4z" fill="#e6e7e8"/><path d="m29 32.16v4.84l-4 4-4-4v-4.84a9.944 9.944 0 0 0 8 0z" fill="#ffc477"/><path d="m25 41-5 3-1.21-6.31 2.21-.69z" fill="#e6e7e8"/><path d="m15 17.27v3.46a2 2 0 1 1 0-3.46z" fill="#ffb655"/><path d="m35 16.75v2a1.549 1.549 0 0 1 -.48-.02l-8.09-1.47a8.083 8.083 0 0 0 -2.86 0l-8.09 1.47a1.549 1.549 0 0 1 -.48.02v-2a1.549 1.549 0 0 0 .48-.02l8.09-1.47a8.083 8.083 0 0 1 2.86 0l8.09 1.47a1.549 1.549 0 0 0 .48.02z" fill="#ffb655"/><path d="m35 6.64v5.9l-4.76-.74 1.49-7.45 1.66.33a2 2 0 0 1 1.61 1.96z" fill="#1e81ce"/><path d="m31.73 4.35-1.49 7.45-3.72-.57a10.325 10.325 0 0 0 -3.04 0l-3.72.57-1.49-7.45 5.16-1.04a8.291 8.291 0 0 1 3.14 0z" fill="#5aaae7"/><path d="m18.27 4.35 1.49 7.45-4.76.74v-5.9a2 2 0 0 1 1.61-1.96z" fill="#1e81ce"/><path d="m35.29 12.58-.29-.04-4.76-.74-3.72-.57a10.325 10.325 0 0 0 -3.04 0l-3.72.57-4.76.74-.29.04a2 2 0 0 0 -1.48 2.87l.1.21a2.013 2.013 0 0 0 1.67 1.09 1.549 1.549 0 0 0 .48-.02l8.09-1.47a8.083 8.083 0 0 1 2.86 0l8.09 1.47a1.549 1.549 0 0 0 .48.02 2.013 2.013 0 0 0 1.67-1.09l.1-.21a2 2 0 0 0 -1.48-2.87z" fill="#3d9ae2"/><path d="m29 32.16v2a9.944 9.944 0 0 1 -8 0v-2a9.944 9.944 0 0 0 8 0z" fill="#ffb655"/><path d="m19 19h2v2h-2z"/><path d="m29 19h2v2h-2z"/><path d="m29 25h-2a2 2 0 0 1 -4 0h-2a4 4 0 0 0 8 0z"/><path d="m57.3 12a1 1 0 0 0 -1.671.45l-1.372 5.121-3.287.672-2.509-2.225 1.369-5.118a1 1 0 0 0 -1.222-1.225 8.987 8.987 0 0 0 -4.436 14.613l-4.102 15.312a11.216 11.216 0 0 0 -1.791-.746l-8.279-2.589v-3.471a10.992 10.992 0 0 0 6-9.794v-1a2.99 2.99 0 0 0 1.406-5.634 2.521 2.521 0 0 0 .158-.259l.1-.206a2.982 2.982 0 0 0 -1.664-4.152v-5.109a3.014 3.014 0 0 0 -2.413-2.94l-6.828-1.373a9.34 9.34 0 0 0 -3.527 0l-6.82 1.373a3.014 3.014 0 0 0 -2.412 2.94v5.109a2.982 2.982 0 0 0 -1.667 4.151l.1.2a2.838 2.838 0 0 0 .155.263 2.99 2.99 0 0 0 1.412 5.637v1a11 11 0 0 0 6 9.786v3.479l-8.277 2.589a10.943 10.943 0 0 0 -7.723 10.496v11.65a1 1 0 0 0 1 1h40a1 1 0 0 0 1-1v-2h-2v1h-5v-3h-2v3h-24v-11h-2v11h-5v-10.65a8.95 8.95 0 0 1 6.318-8.586l2.682-.839v6.075a5.006 5.006 0 0 0 5 5h10a4.968 4.968 0 0 0 3.662-1.622 8.975 8.975 0 0 0 2.638 6.251 1 1 0 0 0 1.671-.45l1.372-5.121 3.286-.673 2.51 2.225-1.372 5.121a1 1 0 0 0 .966 1.259 1.02 1.02 0 0 0 .255-.033 8.985 8.985 0 0 0 4.436-14.613l4.412-16.467a8.986 8.986 0 0 0 3.464-14.877zm-18.571 29.181a9.047 9.047 0 0 0 -3.729 3.392v-4.648l2.681.839a8.965 8.965 0 0 1 1.048.417zm-8.67-2.8-.772 4.027-2.674-1.6 2.666-2.666zm-14.759-22.633a1 1 0 0 1 -1.074-.539l-.1-.2a1 1 0 0 1 .743-1.436l8.768-1.348a8.964 8.964 0 0 1 2.736 0l8.768 1.348a1 1 0 0 1 .744 1.434l-.1.206a1 1 0 0 1 -1.073.537l-8.094-1.473a8.969 8.969 0 0 0 -3.218 0zm20.7 4.252v-2a1 1 0 0 1 0 2zm-2-13.36v4.733l-2.575-.4 1.09-5.453.676.136a1.007 1.007 0 0 1 .809.984zm-10.382-2.348a7.274 7.274 0 0 1 2.755 0l4.182.84-1.109 5.543-2.773-.427a10.913 10.913 0 0 0 -3.346 0l-2.773.427-1.109-5.545zm-6.81 1.368.677-.136 1.09 5.453-2.575.4v-4.737a1.007 1.007 0 0 1 .808-.98zm-3.808 13.34a1 1 0 0 1 1-1v2a1 1 0 0 1 -1-1zm3 4v-5.348l7.748-1.408a6.977 6.977 0 0 1 2.5 0l7.752 1.408v5.348a9 9 0 0 1 -18 0zm9 11a11.04 11.04 0 0 0 3-.421v3.007l-3 3-3-3v-3.012a10.966 10.966 0 0 0 3 .426zm-4.279 4.135 2.666 2.665-2.674 1.6-.772-4.027zm9.279 10.865h-10a3 3 0 0 1 -3-3v-6.7l1.019-.319 1 5.208a1 1 0 0 0 1.5.669l4.481-2.692 4.485 2.691a1 1 0 0 0 1.5-.669l1-5.208 1.015.32v6.7a3 3 0 0 1 -3 3zm27.7-28.827a7.019 7.019 0 0 1 -4.949 4.944 1 1 0 0 0 -.706.707l-4.7 17.537a1 1 0 0 0 .258.965 6.99 6.99 0 0 1 -1.384 10.967l1.008-3.762a1 1 0 0 0 -.3-1.007l-3.347-2.967a1 1 0 0 0 -.663-.252 1.062 1.062 0 0 0 -.2.02l-4.381.9a1 1 0 0 0 -.765.72l-1.007 3.762a6.989 6.989 0 0 1 4.284-10.189 1 1 0 0 0 .706-.707l4.7-17.538a1 1 0 0 0 -.258-.965 6.991 6.991 0 0 1 1.385-10.967l-1.015 3.759a1 1 0 0 0 .3 1.006l3.346 2.967a1 1 0 0 0 .863.232l4.382-.9a1 1 0 0 0 .765-.721l1.008-3.761a6.992 6.992 0 0 1 .67 5.25z"/></svg>